<svg aria-hidden="true" style="width:0;height:0;position:absolute;overflow:hidden" xmlns="http://www.w3.org/2000/svg"><defs><symbol id="youtube" viewBox="0 0 28 28"><path d="M27.721 8.4s-.273-1.93-1.116-2.778c-1.066-1.116-2.259-1.121-2.805-1.187-3.916-.284-9.795-.284-9.795-.284h-.011s-5.879 0-9.795.284c-.547.066-1.739.071-2.805 1.187C.552 6.47.284 8.4.284 8.4s-.279 2.264-.279 4.534v2.122c0 2.264.279 4.534.279 4.534s.273 1.93 1.11 2.778c1.066 1.116 2.466 1.077 3.09 1.198 2.242.213 9.521.279 9.521.279s5.884-.011 9.8-.29c.547-.066 1.739-.071 2.805-1.187.842-.848 1.116-2.778 1.116-2.778s.279-2.264.279-4.534v-2.122C28 10.67 27.721 8.4 27.721 8.4zm-16.614 9.231v-7.87l7.563 3.948-7.563 3.921z"/></symbol><symbol id="facebook" viewBox="0 0 32 32"><path d="M19 6h5V0h-5c-3.86 0-7 3.14-7 7v3H8v6h4v16h6V16h5l1-6h-6V7c0-.542.458-1 1-1z"/></symbol><symbol id="instagram" viewBox="0 0 28 28"><path d="M14 2.521c3.741 0 4.184.016 5.655.082 1.367.06 2.105.29 2.598.481a4.334 4.334 0 0 1 1.608 1.045c.492.492.793.957 1.05 1.608.191.492.421 1.236.481 2.598.066 1.477.082 1.92.082 5.655s-.016 4.184-.082 5.655c-.06 1.367-.29 2.105-.481 2.598a4.334 4.334 0 0 1-1.045 1.608 4.387 4.387 0 0 1-1.608 1.05c-.492.191-1.236.421-2.598.481-1.477.066-1.92.082-5.655.082s-4.184-.016-5.655-.082c-1.367-.06-2.105-.29-2.598-.481a4.334 4.334 0 0 1-1.608-1.045 4.387 4.387 0 0 1-1.05-1.608c-.191-.492-.421-1.236-.481-2.598-.066-1.477-.082-1.92-.082-5.655s.016-4.184.082-5.655c.06-1.367.29-2.105.481-2.598a4.334 4.334 0 0 1 1.045-1.608 4.387 4.387 0 0 1 1.608-1.05c.492-.191 1.236-.421 2.598-.481 1.471-.066 1.914-.082 5.655-.082zM14 0c-3.801 0-4.277.016-5.77.082-1.487.066-2.51.306-3.396.651a6.841 6.841 0 0 0-2.483 1.619A6.87 6.87 0 0 0 .732 4.829C.387 5.72.147 6.738.081 8.225.015 9.723-.001 10.199-.001 14s.016 4.277.082 5.77c.066 1.488.306 2.51.651 3.396a6.841 6.841 0 0 0 1.619 2.483 6.84 6.84 0 0 0 2.477 1.613c.891.345 1.909.585 3.396.651 1.493.066 1.969.082 5.77.082s4.277-.016 5.77-.082c1.488-.066 2.51-.306 3.396-.651.919-.355 1.701-.837 2.477-1.613s1.258-1.559 1.613-2.477c.345-.891.585-1.909.651-3.396.066-1.493.082-1.969.082-5.77s-.016-4.277-.082-5.77c-.066-1.488-.306-2.51-.651-3.396a6.555 6.555 0 0 0-1.602-2.488A6.84 6.84 0 0 0 23.171.739C22.28.394 21.262.154 19.775.088 18.277.017 17.801 0 14 0z"/><path d="M14 6.809c-3.97 0-7.191 3.221-7.191 7.191S10.03 21.191 14 21.191 21.191 17.97 21.191 14A7.193 7.193 0 0 0 14 6.809zm0 11.856a4.666 4.666 0 1 1 .001-9.331A4.666 4.666 0 0 1 14 18.665zM23.155 6.524a1.68 1.68 0 1 1-3.359 0 1.68 1.68 0 0 1 3.359 0z"/></symbol><symbol id="tiktok" viewBox="0 0 32 32"><path d="M16.707.027C18.454 0 20.187.014 21.92 0c.107 2.04.84 4.12 2.333 5.56 1.493 1.48 3.6 2.16 5.653 2.387v5.373c-1.92-.067-3.853-.467-5.6-1.293-.76-.347-1.467-.787-2.16-1.24-.013 3.893.013 7.787-.027 11.667-.107 1.867-.72 3.72-1.8 5.253-1.747 2.56-4.773 4.227-7.88 4.28-1.907.107-3.813-.413-5.44-1.373-2.693-1.587-4.587-4.493-4.867-7.613a24.42 24.42 0 0 1-.013-1.987 10.004 10.004 0 0 1 3.44-6.613c2.213-1.92 5.307-2.84 8.2-2.293.027 1.973-.053 3.947-.053 5.92-1.32-.427-2.867-.307-4.027.493a4.631 4.631 0 0 0-1.813 2.333c-.28.68-.2 1.427-.187 2.147.32 2.187 2.427 4.027 4.667 3.827 1.493-.013 2.92-.88 3.693-2.147.253-.44.533-.893.547-1.413.133-2.387.08-4.76.093-7.147.013-5.373-.013-10.733.027-16.093z"/></symbol><symbol id="nxnc" viewBox="0 0 24 28"><path d="M20 21V7c0-.547-.453-1-1-1h-2c-.547 0-1 .453-1 1v5H8V7c0-.547-.453-1-1-1H5c-.547 0-1 .453-1 1v14c0 .547.453 1 1 1h2c.547 0 1-.453 1-1v-5h8v5c0 .547.453 1 1 1h2c.547 0 1-.453 1-1zm4-14.5v15c0 2.484-2.016 4.5-4.5 4.5h-15A4.502 4.502 0 0 1 0 21.5v-15C0 4.016 2.016 2 4.5 2h15C21.984 2 24 4.016 24 6.5z"/></symbol></defs></svg>