<svg aria-hidden="true" style="position:absolute;width:0;height:0;overflow:hidden" xmlns="http://www.w3.org/2000/svg">
  <defs>
    <symbol id="youtube" viewBox="0 0 28 28">
      <path d="M27.721 8.4c0 0-0.273-1.93-1.116-2.778-1.066-1.116-2.259-1.121-2.805-1.187-3.916-0.284-9.795-0.284-9.795-0.284h-0.011c0 0-5.879 0-9.795 0.284-0.547 0.066-1.739 0.071-2.805 1.187-0.842 0.848-1.11 2.778-1.11 2.778s-0.279 2.264-0.279 4.534v2.122c0 2.264 0.279 4.534 0.279 4.534s0.273 1.93 1.11 2.778c1.066 1.116 2.466 1.077 3.090 1.198 2.242 0.213 9.521 0.279 9.521 0.279s5.884-0.011 9.8-0.29c0.547-0.066 1.739-0.071 2.805-1.187 0.842-0.848 1.116-2.778 1.116-2.778s0.279-2.264 0.279-4.534v-2.122c-0.005-2.264-0.284-4.534-0.284-4.534zM11.107 17.631v-7.87l7.563 3.948-7.563 3.921z"></path>
    </symbol>
    <symbol id="facebook" viewBox="0 0 32 32">
      <path d="M19 6h5v-6h-5c-3.86 0-7 3.14-7 7v3h-4v6h4v16h6v-16h5l1-6h-6v-3c0-0.542 0.458-1 1-1z"></path>
    </symbol>
    <symbol id="instagram" viewBox="0 0 28 28">
      <path d="M14 2.521c3.741 0 4.184 0.016 5.655 0.082 1.367 0.060 2.105 0.29 2.598 0.481 0.651 0.252 1.121 0.558 1.608 1.045 0.492 0.492 0.793 0.957 1.050 1.608 0.191 0.492 0.421 1.236 0.481 2.598 0.066 1.477 0.082 1.92 0.082 5.655s-0.016 4.184-0.082 5.655c-0.060 1.367-0.29 2.105-0.481 2.598-0.252 0.651-0.558 1.121-1.045 1.608-0.492 0.492-0.957 0.793-1.608 1.050-0.492 0.191-1.236 0.421-2.598 0.481-1.477 0.066-1.92 0.082-5.655 0.082s-4.184-0.016-5.655-0.082c-1.367-0.060-2.105-0.29-2.598-0.481-0.651-0.252-1.121-0.558-1.608-1.045-0.492-0.492-0.793-0.957-1.050-1.608-0.191-0.492-0.421-1.236-0.481-2.598-0.066-1.477-0.082-1.92-0.082-5.655s0.016-4.184 0.082-5.655c0.060-1.367 0.29-2.105 0.481-2.598 0.252-0.651 0.558-1.121 1.045-1.608 0.492-0.492 0.957-0.793 1.608-1.050 0.492-0.191 1.236-0.421 2.598-0.481 1.471-0.066 1.914-0.082 5.655-0.082zM14 0c-3.801 0-4.277 0.016-5.77 0.082-1.487 0.066-2.51 0.306-3.396 0.651-0.924 0.361-1.706 0.837-2.483 1.619-0.782 0.777-1.258 1.559-1.619 2.477-0.345 0.891-0.585 1.909-0.651 3.396-0.066 1.498-0.082 1.974-0.082 5.775s0.016 4.277 0.082 5.77c0.066 1.488 0.306 2.51 0.651 3.396 0.361 0.924 0.837 1.706 1.619 2.483 0.777 0.777 1.559 1.258 2.477 1.613 0.891 0.345 1.909 0.585 3.396 0.651 1.493 0.066 1.969 0.082 5.77 0.082s4.277-0.016 5.77-0.082c1.488-0.066 2.51-0.306 3.396-0.651 0.919-0.355 1.701-0.837 2.477-1.613s1.258-1.559 1.613-2.477c0.345-0.891 0.585-1.909 0.651-3.396 0.066-1.493 0.082-1.969 0.082-5.77s-0.016-4.277-0.082-5.77c-0.066-1.488-0.306-2.51-0.651-3.396-0.345-0.93-0.82-1.712-1.602-2.488-0.777-0.777-1.559-1.258-2.477-1.613-0.891-0.345-1.909-0.585-3.396-0.651-1.498-0.071-1.974-0.088-5.775-0.088v0z"></path>
      <path d="M14 6.809c-3.97 0-7.191 3.221-7.191 7.191s3.221 7.191 7.191 7.191 7.191-3.221 7.191-7.191c0-3.97-3.221-7.191-7.191-7.191zM14 18.665c-2.576 0-4.665-2.089-4.665-4.665s2.089-4.665 4.665-4.665c2.576 0 4.665 2.089 4.665 4.665s-2.089 4.665-4.665 4.665z"></path>
      <path d="M23.155 6.524c0 0.927-0.752 1.679-1.679 1.679s-1.679-0.752-1.679-1.679c0-0.927 0.752-1.679 1.679-1.679s1.679 0.752 1.679 1.679z"></path>
    </symbol>
    <symbol id="tiktok" viewBox="0 0 32 32">
      <path d="M16.707 0.027c1.747-0.027 3.48-0.013 5.213-0.027 0.107 2.040 0.84 4.12 2.333 5.56 1.493 1.48 3.6 2.16 5.653 2.387v5.373c-1.92-0.067-3.853-0.467-5.6-1.293-0.76-0.347-1.467-0.787-2.16-1.24-0.013 3.893 0.013 7.787-0.027 11.667-0.107 1.867-0.72 3.72-1.8 5.253-1.747 2.56-4.773 4.227-7.88 4.28-1.907 0.107-3.813-0.413-5.44-1.373-2.693-1.587-4.587-4.493-4.867-7.613-0.027-0.667-0.040-1.333-0.013-1.987 0.24-2.533 1.493-4.96 3.44-6.613 2.213-1.92 5.307-2.84 8.2-2.293 0.027 1.973-0.053 3.947-0.053 5.92-1.32-0.427-2.867-0.307-4.027 0.493-0.84 0.547-1.48 1.387-1.813 2.333-0.28 0.68-0.2 1.427-0.187 2.147 0.32 2.187 2.427 4.027 4.667 3.827 1.493-0.013 2.92-0.88 3.693-2.147 0.253-0.44 0.533-0.893 0.547-1.413 0.133-2.387 0.080-4.76 0.093-7.147 0.013-5.373-0.013-10.733 0.027-16.093z"></path>
    </symbol>
        <symbol id="nxnc" viewBox="0 0 24 28">
      <path d="M20 21v-14c0-0.547-0.453-1-1-1h-2c-0.547 0-1 0.453-1 1v5h-8v-5c0-0.547-0.453-1-1-1h-2c-0.547 0-1 0.453-1 1v14c0 0.547 0.453 1 1 1h2c0.547 0 1-0.453 1-1v-5h8v5c0 0.547 0.453 1 1 1h2c0.547 0 1-0.453 1-1zM24 6.5v15c0 2.484-2.016 4.5-4.5 4.5h-15c-2.484 0-4.5-2.016-4.5-4.5v-15c0-2.484 2.016-4.5 4.5-4.5h15c2.484 0 4.5 2.016 4.5 4.5z"></path>
    </symbol>
      </defs>
</svg>